<?xml version="1.0" standalone="no"?>
<!DOCTYPE svg PUBLIC "-//W3C//DTD SVG 20010904//EN"
 "http://www.w3.org/TR/2001/REC-SVG-20010904/DTD/svg10.dtd">
<svg version="1.0" xmlns="http://www.w3.org/2000/svg"
 width="260.000000pt" height="260.000000pt" viewBox="0 0 260.000000 260.000000"
 preserveAspectRatio="xMidYMid meet">
<metadata>
Created by potrace 1.11, written by Peter Selinger 2001-2013
</metadata>
<g transform="translate(0.000000,260.000000) scale(0.100000,-0.100000)"
fill="#000000" stroke="none">
<path d="M1155 2581 c-89 -26 -133 -47 -191 -91 -59 -44 -104 -123 -104 -179
1 -115 128 -226 320 -278 101 -28 349 -25 453 5 216 62 325 178 295 316 -19
92 -148 192 -294 230 -90 23 -396 21 -479 -3z"/>
<path d="M0 2056 l0 -233 108 -18 c147 -24 384 -85 521 -134 63 -23 115 -40
116 -38 38 50 77 118 86 150 32 121 -64 259 -267 381 -32 20 -54 36 -48 36 15
0 120 -65 179 -110 28 -21 67 -61 87 -88 101 -131 91 -248 -31 -372 -100 -101
-317 -191 -601 -248 -77 -16 -142 -31 -145 -34 -3 -3 23 -8 57 -11 139 -14
480 -112 712 -206 l99 -40 64 24 c277 105 429 256 427 426 -1 134 -105 282
-284 405 -186 128 -458 245 -665 288 -148 30 -322 56 -377 56 l-38 0 0 -234z"/>
<path d="M910 1055 c0 -2 23 -16 50 -30 28 -14 50 -23 50 -20 0 2 -22 16 -50
30 -27 14 -50 23 -50 20z"/>
<path d="M1020 997 c0 -3 30 -23 68 -45 102 -62 224 -163 287 -239 106 -128
152 -255 142 -388 -4 -58 -3 -64 5 -35 14 50 3 165 -22 233 -48 127 -173 274
-321 379 -70 50 -159 103 -159 95z"/>
<path d="M28 823 c7 -3 16 -2 19 1 4 3 -2 6 -13 5 -11 0 -14 -3 -6 -6z"/>
<path d="M68 813 c7 -3 16 -2 19 1 4 3 -2 6 -13 5 -11 0 -14 -3 -6 -6z"/>
<path d="M178 783 c7 -3 16 -2 19 1 4 3 -2 6 -13 5 -11 0 -14 -3 -6 -6z"/>
<path d="M430 702 c8 -5 26 -13 40 -16 17 -5 20 -4 10 2 -8 5 -26 13 -40 16
-17 5 -20 4 -10 -2z"/>
<path d="M510 670 c8 -5 20 -10 25 -10 6 0 3 5 -5 10 -8 5 -19 10 -25 10 -5 0
-3 -5 5 -10z"/>
<path d="M570 645 c14 -8 30 -14 35 -14 6 0 -1 6 -15 14 -14 8 -29 14 -35 14
-5 0 1 -6 15 -14z"/>
<path d="M747 561 c196 -101 323 -190 439 -305 77 -78 109 -118 136 -173 l36
-73 49 53 c45 50 103 150 103 179 0 7 -15 -19 -34 -57 -18 -39 -51 -90 -73
-115 l-40 -45 -23 45 c-74 146 -222 286 -442 418 -86 52 -262 142 -275 142 -5
0 51 -31 124 -69z"/>
</g>
</svg>
